<?xml version="1.0" encoding="iso-8859-1"?>
<!-- Generator: Adobe Illustrator 19.0.0, SVG Export Plug-In . SVG Version: 6.00 Build 0)  -->
<svg version="1.1" id="Capa_1" xmlns="http://www.w3.org/2000/svg" xmlns:xlink="http://www.w3.org/1999/xlink" x="0px" y="0px"
	 viewBox="0 0 423.253 423.253" style="enable-background:new 0 0 423.253 423.253;" xml:space="preserve">
<g>
	<g>
		<path d="M34.133,167.253H6.827c-3.773,0-6.827,3.053-6.827,6.827V256c0,3.773,3.053,6.827,6.827,6.827h27.307
			c3.773,0,6.827-3.053,6.827-6.827v-81.92C40.96,170.307,37.907,167.253,34.133,167.253z M27.307,249.173H13.653v-68.267h13.653
			V249.173z"/>
	</g>
</g>
<g>
	<g>
		<path d="M245.76,324.267h-68.267c-3.773,0-6.827,3.053-6.827,6.827v61.44c0,3.773,3.053,6.827,6.827,6.827h68.267
			c3.773,0,6.827-3.053,6.827-6.827v-61.44C252.587,327.32,249.533,324.267,245.76,324.267z M238.933,385.707H184.32V337.92h54.613
			V385.707z"/>
	</g>
</g>
<g>
	<g>
		<path d="M416.427,167.253H389.12c-3.773,0-6.827,3.053-6.827,6.827V256c0,3.773,3.053,6.827,6.827,6.827h27.307
			c3.773,0,6.827-3.053,6.827-6.827v-81.92C423.253,170.307,420.2,167.253,416.427,167.253z M409.6,249.173h-13.653v-68.267H409.6
			V249.173z"/>
	</g>
</g>
<g>
	<g>
		<path d="M153.699,52.174c-3.239-1.94-7.426-0.894-9.366,2.34l-40.96,68.267c-1.94,3.232-0.894,7.426,2.34,9.366
			c1.101,0.659,2.314,0.973,3.507,0.973c2.319,0,4.581-1.179,5.859-3.313l40.96-68.267
			C157.979,58.308,156.933,54.115,153.699,52.174z"/>
	</g>
</g>
<g>
	<g>
		<path d="M361.854,119.467H61.401c-18.801,0-34.094,15.307-34.094,34.126v150.2c0,18.819,15.293,34.127,34.094,34.127h300.452
			c18.801,0,34.094-15.307,34.094-34.127v-150.2C395.947,134.774,380.653,119.467,361.854,119.467z M382.295,303.793
			c0,11.286-9.168,20.473-20.441,20.473H61.401c-11.274,0-20.441-9.187-20.441-20.473v-150.2c0-11.286,9.167-20.473,20.441-20.473
			h300.454c11.274,0,20.441,9.187,20.441,20.473V303.793z"/>
	</g>
</g>
<g>
	<g>
		<path d="M211.627,242.347c-26.348,0-47.787,21.439-47.787,47.787c0,3.773,3.053,6.827,6.827,6.827s6.827-3.053,6.827-6.827
			c0-18.819,15.314-34.133,34.133-34.133c18.819,0,34.133,15.314,34.133,34.133c0,3.773,3.053,6.827,6.827,6.827
			c3.773,0,6.827-3.053,6.827-6.827C259.413,263.786,237.974,242.347,211.627,242.347z"/>
	</g>
</g>
<g>
	<g>
		<path d="M157.013,23.893c-11.293,0-20.48,9.187-20.48,20.48c0,11.293,9.187,20.48,20.48,20.48c11.293,0,20.48-9.187,20.48-20.48
			C177.493,33.08,168.306,23.893,157.013,23.893z M157.013,51.2c-3.767,0-6.827-3.06-6.827-6.827c0-3.767,3.06-6.827,6.827-6.827
			s6.827,3.06,6.827,6.827C163.84,48.14,160.78,51.2,157.013,51.2z"/>
	</g>
</g>
<g>
	<g>
		<path d="M116.053,174.08c-18.819,0-34.133,15.314-34.133,34.133c0,18.819,15.314,34.133,34.133,34.133
			c18.819,0,34.133-15.314,34.133-34.133C150.187,189.394,134.873,174.08,116.053,174.08z M116.053,228.693
			c-11.293,0-20.48-9.187-20.48-20.48s9.187-20.48,20.48-20.48c11.293,0,20.48,9.187,20.48,20.48S127.346,228.693,116.053,228.693z"
			/>
	</g>
</g>
<g>
	<g>
		<path d="M307.2,174.08c-18.819,0-34.133,15.314-34.133,34.133c0,18.819,15.314,34.133,34.133,34.133
			c18.819,0,34.133-15.314,34.133-34.133C341.333,189.394,326.019,174.08,307.2,174.08z M307.2,228.693
			c-11.293,0-20.48-9.187-20.48-20.48s9.187-20.48,20.48-20.48c11.293,0,20.48,9.187,20.48,20.48S318.493,228.693,307.2,228.693z"/>
	</g>
</g>
<g>
</g>
<g>
</g>
<g>
</g>
<g>
</g>
<g>
</g>
<g>
</g>
<g>
</g>
<g>
</g>
<g>
</g>
<g>
</g>
<g>
</g>
<g>
</g>
<g>
</g>
<g>
</g>
<g>
</g>
</svg>
